<?xml version="1.0" encoding="utf-8"?>
<!-- Generator: Adobe Illustrator 22.0.0, SVG Export Plug-In . SVG Version: 6.00 Build 0)  -->
<svg version="1.1" id="Capa_1" xmlns="http://www.w3.org/2000/svg" xmlns:xlink="http://www.w3.org/1999/xlink" x="0px" y="0px"
	 viewBox="0 0 32 32" style="enable-background:new 0 0 32 32;" xml:space="preserve">
<style type="text/css">
	.st0{fill:#9DA8BE;}
</style>
<title>instagram</title>
<path class="st0" d="M16,2.9c4.3,0,4.8,0,6.5,0.1c1.6,0.1,2.4,0.3,3,0.5c0.7,0.3,1.3,0.6,1.8,1.2c0.6,0.6,0.9,1.1,1.2,1.8
	c0.2,0.6,0.5,1.4,0.5,3c0.1,1.7,0.1,2.2,0.1,6.5s0,4.8-0.1,6.5c-0.1,1.6-0.3,2.4-0.5,3c-0.3,0.7-0.6,1.3-1.2,1.8
	c-0.6,0.6-1.1,0.9-1.8,1.2c-0.6,0.2-1.4,0.5-3,0.5c-1.7,0.1-2.2,0.1-6.5,0.1s-4.8,0-6.5-0.1c-1.6-0.1-2.4-0.3-3-0.5
	c-0.7-0.3-1.3-0.6-1.8-1.2c-0.6-0.6-0.9-1.1-1.2-1.8c-0.2-0.6-0.5-1.4-0.5-3c-0.1-1.7-0.1-2.2-0.1-6.5s0-4.8,0.1-6.5
	c0.1-1.6,0.3-2.4,0.5-3c0.3-0.7,0.6-1.3,1.2-1.8c0.6-0.6,1.1-0.9,1.8-1.2C7.1,3.3,8,3,9.5,3C11.2,2.9,11.7,2.9,16,2.9L16,2.9z M16,0
	c-4.3,0-4.9,0-6.6,0.1C7.7,0.2,6.5,0.4,5.5,0.8c-1.1,0.4-2,1-2.8,1.8C1.8,3.6,1.3,4.5,0.8,5.5c-0.4,1-0.7,2.2-0.7,3.9
	C0,11.1,0,11.7,0,16s0,4.9,0.1,6.6c0.1,1.7,0.3,2.9,0.7,3.9c0.4,1.1,1,2,1.9,2.8c0.9,0.9,1.8,1.4,2.8,1.8c1,0.4,2.2,0.7,3.9,0.7
	C11.1,32,11.6,32,16,32s4.9,0,6.6-0.1c1.7-0.1,2.9-0.4,3.9-0.7c1-0.4,1.9-1,2.8-1.8s1.4-1.8,1.8-2.8c0.4-1,0.7-2.2,0.7-3.9
	C32,20.9,32,20.4,32,16s0-4.9-0.1-6.6c-0.1-1.7-0.4-2.9-0.7-3.9c-0.4-1.1-0.9-2-1.8-2.8c-0.9-0.9-1.8-1.4-2.8-1.8
	c-1-0.4-2.2-0.7-3.9-0.7C20.9,0,20.3,0,16,0L16,0L16,0z"/>
<path class="st0" d="M16,7.8c-4.5,0-8.2,3.7-8.2,8.2s3.7,8.2,8.2,8.2s8.2-3.7,8.2-8.2C24.2,11.5,20.5,7.8,16,7.8z M16,21.3
	c-2.9,0-5.3-2.4-5.3-5.3s2.4-5.3,5.3-5.3s5.3,2.4,5.3,5.3S18.9,21.3,16,21.3z"/>
<path class="st0" d="M26.5,7.5c0,1.1-0.9,1.9-1.9,1.9s-1.9-0.9-1.9-1.9s0.9-1.9,1.9-1.9S26.5,6.4,26.5,7.5z"/>
</svg>
