<?xml version="1.0" encoding="utf-8"?>
<!-- Generator: Adobe Illustrator 22.0.0, SVG Export Plug-In . SVG Version: 6.00 Build 0)  -->
<svg version="1.1" id="Capa_1" xmlns="http://www.w3.org/2000/svg" xmlns:xlink="http://www.w3.org/1999/xlink" x="0px" y="0px"
	 viewBox="0 0 32 32" style="enable-background:new 0 0 32 32;" xml:space="preserve">
<style type="text/css">
	.st0{fill:#9DA8BE;}
</style>
<title>whatsapp</title>
<path class="st0" d="M27.3,4.7c-3-3-7-4.7-11.2-4.7C7.3,0,0.2,7.1,0.2,15.9c0,2.8,0.7,5.5,2.1,7.9L0.1,32l8.4-2.2
	c2.3,1.3,4.9,1.9,7.6,1.9h0l0,0c8.7,0,15.9-7.1,15.9-15.9C31.9,11.6,30.3,7.7,27.3,4.7L27.3,4.7z M16.1,29L16.1,29
	c-2.4,0-4.7-0.6-6.7-1.8l-0.5-0.3l-5,1.3l1.3-4.9l-0.3-0.5c-1.3-2.1-2-4.5-2-7c0-7.3,5.9-13.2,13.2-13.2c3.5,0,6.8,1.4,9.3,3.9
	c2.5,2.5,3.9,5.8,3.9,9.3C29.2,23.1,23.3,29,16.1,29z M23.3,19.2C22.9,19,21,18,20.6,17.9s-0.6-0.2-0.9,0.2c-0.3,0.4-1,1.3-1.3,1.6
	c-0.2,0.3-0.5,0.3-0.9,0.1s-1.7-0.6-3.2-2c-1.2-1-2-2.4-2.2-2.7s0-0.6,0.2-0.8c0.2-0.2,0.4-0.5,0.6-0.7s0.3-0.4,0.4-0.7
	c0.1-0.3,0.1-0.5,0-0.7s-0.9-2.2-1.2-2.9c-0.3-0.8-0.6-0.7-0.9-0.7c-0.2,0-0.5,0-0.8,0S9.8,8.6,9.4,9C9,9.4,8,10.4,8,12.3
	s1.4,3.8,1.6,4.1c0.2,0.3,2.8,4.3,6.8,6c0.9,0.4,1.7,0.6,2.3,0.8c1,0.3,1.8,0.3,2.5,0.2c0.8-0.1,2.3-1,2.7-1.9s0.3-1.7,0.2-1.9
	C24,19.5,23.7,19.4,23.3,19.2L23.3,19.2z"/>
</svg>
